<svg xmlns="http://www.w3.org/2000/svg" version="1.1" xmlns:xlink="http://www.w3.org/1999/xlink" xmlns:svgjs="http://svgjs.dev/svgjs" width="1440" height="560" preserveAspectRatio="none" viewBox="0 0 1440 560"><g mask="url(&quot;#SvgjsMask4211&quot;)" fill="none"><rect width="1440" height="560" x="0" y="0" fill="url(&quot;#SvgjsLinearGradient4212&quot;)"></rect><path d="M328.74 671.21C451.74 661.59 535.02 417.37 751.3 416.29 967.58 415.21 962.58 486.29 1173.86 486.29 1385.14 486.29 1489.34 416.53 1596.42 416.29" stroke="rgba(255, 255, 255, 0.48)" stroke-width="2"></path><path d="M863.01 599.04C996.96 580.26 1074.07 267.24 1290.09 266.86 1506.11 266.48 1599.21 463.48 1717.17 468.46" stroke="rgba(255, 255, 255, 0.48)" stroke-width="2"></path><path d="M731.47 631.59C822.84 598.8 761.35 343.42 971.71 326.55 1182.06 309.68 1327.46 193.41 1452.18 192.15" stroke="rgba(255, 255, 255, 0.48)" stroke-width="2"></path><path d="M447.95 655.67C578.82 621.11 532.04 262.88 818.35 260.8 1104.67 258.72 1371.64 378.03 1559.16 378.4" stroke="rgba(255, 255, 255, 0.48)" stroke-width="2"></path><path d="M326.15 644.91C471.12 589.95 405.35 156.3 701.99 151.61 998.64 146.92 1263.25 274.4 1453.68 274.81" stroke="rgba(255, 255, 255, 0.48)" stroke-width="2"></path></g><defs><mask id="SvgjsMask4211"><rect width="1440" height="560" fill="#ffffff"></rect></mask><linearGradient x1="15.28%" y1="-39.29%" x2="84.72%" y2="139.29%" gradientUnits="userSpaceOnUse" id="SvgjsLinearGradient4212"><stop stop-color="rgba(233, 233, 233, 0.86)" offset="0"></stop><stop stop-color="rgba(240, 240, 240, 1)" offset="1"></stop></linearGradient></defs></svg>